<?xml version="1.0" encoding="utf-8" standalone="no"?>

<!DOCTYPE svg
  PUBLIC "-//W3C//DTD SVG 1.1//EN" "http://www.w3.org/Graphics/SVG/1.1/DTD/svg11.dtd">
<svg xmlns="http://www.w3.org/2000/svg" xmlns:xlink="http://www.w3.org/1999/xlink" height="100%" width="100%">
   <desc>a Kalaha game</desc>
   <defs>
      <g id="house">
         <desc>a so-called Kalaha "house"</desc>
         <rect width="45" height="85" fill="white" stroke="black" stroke-width="2"/>
      </g>
      <g id="kalah">
         <desc>a so-called Kalaha "Kalah"</desc>
         <circle r="40" stroke="black" stroke-width="2,5" fill="white"/>
      </g>
      <g id="seed">
         <desc>a so-called Kalaha "seed"</desc>
         <circle r="4" stroke="#00A4DE" stroke-width="2,5" fill="#00A4DE"/>
      </g>
      <g id="board">
         <desc>the actual Kalaha board, presented in traditional layout</desc>
         <path d="M0 40 Q 0 0 40 0                         L 535 0                         M535 0 Q 575 0 575 40                         L 575 195                         M575 195 Q 575 235 535 235                         L 40 235                         M40 235 Q 0 235 0 195                         L 0 40" stroke="black" stroke-width="2,5" fill="#E8F9FF"/>
         <use xlink:href="#kalah" x="60" y="120"/>
         <use xlink:href="#house" x="115" y="20"/>
         <use xlink:href="#house" x="175" y="20"/>
         <use xlink:href="#house" x="235" y="20"/>
         <use xlink:href="#house" x="295" y="20"/>
         <use xlink:href="#house" x="355" y="20"/>
         <use xlink:href="#house" x="415" y="20"/>
         <use xlink:href="#kalah" x="515" y="120"/>
         <use xlink:href="#house" x="115" y="130"/>
         <use xlink:href="#house" x="175" y="130"/>
         <use xlink:href="#house" x="235" y="130"/>
         <use xlink:href="#house" x="295" y="130"/>
         <use xlink:href="#house" x="355" y="130"/>
         <use xlink:href="#house" x="415" y="130"/>
         <text x="25" y="175" fill="black">Player1</text>
         <text x="25" y="105" fill="black">10</text>
         <use xlink:href="#seed" x="48" y="135"/>
         <use xlink:href="#seed" x="38" y="132.5"/>
         <use xlink:href="#seed" x="28" y="130"/>
         <use xlink:href="#seed" x="58" y="127.5"/>
         <use xlink:href="#seed" x="48" y="125"/>
         <use xlink:href="#seed" x="38" y="122.5"/>
         <use xlink:href="#seed" x="28" y="120"/>
         <use xlink:href="#seed" x="58" y="117.5"/>
         <use xlink:href="#seed" x="48" y="115"/>
         <use xlink:href="#seed" x="38" y="112.5"/>
         <text x="0" y="250" fill="black">Anzahl Gewinne: 1</text>
         <text x="0" y="275" fill="black">Anzahl Samen: 2</text>
         <text x="490" y="175" fill="black">Player2</text>
         <text x="490" y="105" fill="black">8</text>
         <use xlink:href="#seed" x="493" y="130"/>
         <use xlink:href="#seed" x="523" y="127.5"/>
         <use xlink:href="#seed" x="513" y="125"/>
         <use xlink:href="#seed" x="503" y="122.5"/>
         <use xlink:href="#seed" x="493" y="120"/>
         <use xlink:href="#seed" x="523" y="117.5"/>
         <use xlink:href="#seed" x="513" y="115"/>
         <use xlink:href="#seed" x="503" y="112.5"/>
         <text x="465" y="250" fill="black">Anzahl Gewinne: 2</text>
         <text x="465" y="275" fill="black">Anzahl Samen: 1</text>
         <text x="120" y="35" fill="black">2</text>
         <use xlink:href="#seed" x="143" y="45"/>
         <use xlink:href="#seed" x="133" y="42.5"/>
         <text x="180" y="35" fill="black">3</text>
         <use xlink:href="#seed" x="213" y="47.5"/>
         <use xlink:href="#seed" x="203" y="45"/>
         <use xlink:href="#seed" x="193" y="42.5"/>
         <text x="240" y="35" fill="black">4</text>
         <use xlink:href="#seed" x="243" y="50"/>
         <use xlink:href="#seed" x="273" y="47.5"/>
         <use xlink:href="#seed" x="263" y="45"/>
         <use xlink:href="#seed" x="253" y="42.5"/>
         <text x="300" y="35" fill="black">1</text>
         <use xlink:href="#seed" x="313" y="42.5"/>
         <text x="360" y="35" fill="black">6</text>
         <use xlink:href="#seed" x="383" y="55"/>
         <use xlink:href="#seed" x="373" y="52.5"/>
         <use xlink:href="#seed" x="363" y="50"/>
         <use xlink:href="#seed" x="393" y="47.5"/>
         <use xlink:href="#seed" x="383" y="45"/>
         <use xlink:href="#seed" x="373" y="42.5"/>
         <text x="420" y="35" fill="black">8</text>
         <use xlink:href="#seed" x="423" y="60"/>
         <use xlink:href="#seed" x="453" y="57.5"/>
         <use xlink:href="#seed" x="443" y="55"/>
         <use xlink:href="#seed" x="433" y="52.5"/>
         <use xlink:href="#seed" x="423" y="50"/>
         <use xlink:href="#seed" x="453" y="47.5"/>
         <use xlink:href="#seed" x="443" y="45"/>
         <use xlink:href="#seed" x="433" y="42.5"/>
         <text x="120" y="145" fill="black">8</text>
         <use xlink:href="#seed" x="123" y="170"/>
         <use xlink:href="#seed" x="153" y="167.5"/>
         <use xlink:href="#seed" x="143" y="165"/>
         <use xlink:href="#seed" x="133" y="162.5"/>
         <use xlink:href="#seed" x="123" y="160"/>
         <use xlink:href="#seed" x="153" y="157.5"/>
         <use xlink:href="#seed" x="143" y="155"/>
         <use xlink:href="#seed" x="133" y="152.5"/>
         <text x="180" y="145" fill="black">10</text>
         <use xlink:href="#seed" x="203" y="175"/>
         <use xlink:href="#seed" x="193" y="172.5"/>
         <use xlink:href="#seed" x="183" y="170"/>
         <use xlink:href="#seed" x="213" y="167.5"/>
         <use xlink:href="#seed" x="203" y="165"/>
         <use xlink:href="#seed" x="193" y="162.5"/>
         <use xlink:href="#seed" x="183" y="160"/>
         <use xlink:href="#seed" x="213" y="157.5"/>
         <use xlink:href="#seed" x="203" y="155"/>
         <use xlink:href="#seed" x="193" y="152.5"/>
         <text x="240" y="145" fill="black">4</text>
         <use xlink:href="#seed" x="243" y="160"/>
         <use xlink:href="#seed" x="273" y="157.5"/>
         <use xlink:href="#seed" x="263" y="155"/>
         <use xlink:href="#seed" x="253" y="152.5"/>
         <text x="300" y="145" fill="black">1</text>
         <use xlink:href="#seed" x="313" y="152.5"/>
         <text x="360" y="145" fill="black">3</text>
         <use xlink:href="#seed" x="393" y="157.5"/>
         <use xlink:href="#seed" x="383" y="155"/>
         <use xlink:href="#seed" x="373" y="152.5"/>
         <text x="420" y="145" fill="black">1</text>
         <use xlink:href="#seed" x="433" y="152.5"/>
         <text x="200" y="305" fill="black">Spieler am Zug: Player1</text>
      </g>
      <g id="logo">
         <desc>a logo</desc>
         <text x="10" y="25" fill="black">Kalaha</text>
      </g>
   </defs>
   <use xlink:href="#logo" x="0" y="0"/>
   <use xlink:href="#button_new_game" x="0" y="40"/>
   <use xlink:href="#button_undo_move" x="145" y="40"/>
   <use xlink:href="#board" x="0" y="90"/>
</svg>