<?xml version="1.0" encoding="UTF-8"?>
<!DOCTYPE svg PUBLIC "-//W3C//DTD SVG 1.1//EN" "http://www.w3.org/Graphics/SVG/1.1/DTD/svg11.dtd">
<svg xmlns:xlink="http://www.w3.org/1999/xlink"
    xmlns="http://www.w3.org/2000/svg" width="80%" height="100%">
    <desc></desc>
    <g alignment-baseline="baseline"></g>
    <use xlink:href="#c1" x="70" y="150"  />
    <use xlink:href="#c1" x="525" y="150" />
    
    <use xlink:href="#r1" x="125" y="50"/>
    <use xlink:href="#r1" x="125" y="160" />
    <use xlink:href="#r1" x="185" y="50" />
    <use xlink:href="#r1" x="185" y="160" />
    <use xlink:href="#r1" x="245" y="50" />
    <use xlink:href="#r1" x="245" y="160" />
    <use xlink:href="#r1" x="305" y="50" />
    <use xlink:href="#r1" x="305" y="160" />
    <use xlink:href="#r1" x="365" y="50" />
    <use xlink:href="#r1" x="365" y="160" />
    <use xlink:href="#r1" x="425" y="50" />
    <use xlink:href="#r1" x="425" y="160" />
    
    
    <use xlink:href="#e1" x="290" y="450" />
    <use xlink:href="#e1" x="310" y="510" />
    
    <use xlink:href="#cube" x="200" y="550" />
    <use xlink:href="#cube" x="260" y="550" />
    <use xlink:href="#cube" x="320" y="550" />
    <use xlink:href="#cube" x="380" y="550" />
    <use xlink:href="#cube" x="380" y="490" />
    <use xlink:href="#cube" x="380" y="430" />
    
    <use xlink:href="#cube" x="175" y="490" />
    <use xlink:href="#cube" x="175" y="430" />
    <use xlink:href="#cube" x="175" y="370" />
    <use xlink:href="#cube" x="235" y="370" />
    <use xlink:href="#cube" x="295" y="370" />
    <use xlink:href="#cube" x="355" y="370" />
    
    
    <defs>
        <rect id="r1"
            width="45" height="85"
            fill="white" stroke="black" stroke-width="2" >
        </rect>
        
        <circle id="c1" r="40" stroke="black" stroke-width="2,5" fill="white" />
        
        <rect id="cube" width="45" height="45" fill="white" stroke="black" stroke-width="2" >
        </rect>
        <ellipse id="e1" rx="60" ry="20" fill="white" stroke="black" stroke-width="2,5"></ellipse>
    </defs>
    
    <!--use xlink:href="#r1" x="100" y="100"/>
    <use xlink:href="#r1" x="150" y="150"/>
    <use href="#anim-rect" transform="translate(200 50)"/>
    <use href="#anim-rect" transform="translate(300 50)"/-->
</svg>