<?xml version="1.0" encoding="UTF-8"?>

<!-- Authors: Meryem Özkaya, Alexandra Brandl, Max Wüstehube -->

<!DOCTYPE svg PUBLIC "-//W3C//DTD SVG 1.1//EN" "http://www.w3.org/Graphics/SVG/1.1/DTD/svg11.dtd">

<svg xmlns:xlink="http://www.w3.org/1999/xlink"
    xmlns="http://www.w3.org/2000/svg" width="80%" height="100%">
    
    <desc>a Kalaha game</desc>
    
    <!-- definitioan of objects -->
    <defs>
        <g id="house">
            <desc>a so-called Kalaha "house"</desc>
            
            <rect width="45" height="85" fill="white" stroke="black" stroke-width="2" ></rect>
        </g>
        
        <g id="kalah">
            <desc>a so-called Kalaha "Kalah"</desc>
            
            <circle r="40" stroke="black" stroke-width="2,5" fill="white" />
        </g>
        
        <g id="seed">
            <desc>a so-called Kalaha "seed"</desc>
            
            <circle r="4" stroke="#00A4DE" stroke-width="2,5" fill="#00A4DE" />
        </g>
        
        <g id="board">
            <desc>the actual Kalaha board, presented in traditional layout</desc>
            
            <!-- board frame -->
            <path d="M0 40 Q 0 0 40 0
               L 535 0
               M535 0 Q 575 0 575 40
               L 575 195
               M575 195 Q 575 235 535 235
               L 40 235
               M40 235 Q 0 235 0 195
               L 0 40" stroke="black" stroke-width="2,5" fill="#E8F9FF"/>
            
            <!-- player one's houses -->
            <use xlink:href="#house" x="115" y="20"></use>
            <use xlink:href="#house" x="175" y="20"></use>
            <use xlink:href="#house" x="235" y="20"></use>
            <use xlink:href="#house" x="295" y="20"></use>
            <use xlink:href="#house" x="355" y="20"></use>
            <use xlink:href="#house" x="415" y="20"></use>
            
            <!-- player two's houses -->
            <use xlink:href="#house" x="115" y="130"></use>
            <use xlink:href="#house" x="175" y="130"></use>
            <use xlink:href="#house" x="235" y="130"></use>
            <use xlink:href="#house" x="295" y="130"></use>
            <use xlink:href="#house" x="355" y="130"></use>
            <use xlink:href="#house" x="415" y="130"></use>
            
            <!-- player one's kalah -->
            <use xlink:href="#kalah" x="60" y="120"></use>
            
            <!-- player two's kalah -->
            <use xlink:href="#kalah" x="515" y="120"></use>
            
            <!-- some seeds -->
            <use xlink:href="#seed" x="35" y="105"></use>
            <use xlink:href="#seed" x="45" y="130"></use>
            <use xlink:href="#seed" x="60" y="125"></use>
            <use xlink:href="#seed" x="70" y="120"></use>
            <use xlink:href="#seed" x="120" y="30"></use>
            <use xlink:href="#seed" x="140" y="35"></use>
            <use xlink:href="#seed" x="190" y="35"></use>
            <use xlink:href="#seed" x="250" y="70"></use>
            <use xlink:href="#seed" x="250" y="170"></use>
            <use xlink:href="#seed" x="255" y="45"></use>
            <use xlink:href="#seed" x="260" y="165"></use>
            <use xlink:href="#seed" x="265" y="55"></use>
            <use xlink:href="#seed" x="305" y="175"></use>
            <use xlink:href="#seed" x="365" y="55"></use>
            <use xlink:href="#seed" x="430" y="170"></use>
            <use xlink:href="#seed" x="505" y="120"></use>
            <use xlink:href="#seed" x="515" y="120"></use>
            <use xlink:href="#seed" x="520" y="140"></use>
        </g>
        
        <g id="button_new_game">
            <desc>a button for starting a new game</desc>
            
            <rect width="125" height="30" fill="white" stroke="black" stroke-width="2" ></rect>
            <text x="10" y="20" fill="black">Start new Game</text>
        </g>
        
        <g id="button_undo_move">
            <desc>a button for undoing a move</desc>
            
            <rect width="97" height="30" fill="white" stroke="black" stroke-width="2" ></rect>
            <text x="10" y="20" fill="black">Undo Move</text>
        </g>
        
        <g id="button_name">
            <desc>a button for name</desc>
            
            <rect width="97" height="30" fill="white" stroke="black" stroke-width="2" ></rect>
            <text x="10" y="20" fill="black">Name</text>
        </g>
        
        <g id="logo">
            <desc>a logo</desc>
            
            <text x="10" y="25" fill="black">Kalaha</text>
        </g>
    </defs>
    
    <!-- display Kalaha game -->
    <use xlink:href="#logo" x="0" y="0"></use>
    <use xlink:href="#button_new_game" x="0" y="40"></use>
    <use xlink:href="#button_undo_move" x="145" y="40"></use>
    <use xlink:href="button_name" x="190" y="40"></use>
    <use xlink:href="#board" x="0" y="90"></use>
</svg>