<?xml version="1.0" encoding="utf-8" standalone="no"?>

<!DOCTYPE svg
  PUBLIC "-//W3C//DTD SVG 1.1//EN" "http://www.w3.org/Graphics/SVG/1.1/DTD/svg11.dtd">
<svg xmlns="http://www.w3.org/2000/svg" xmlns:xlink="http://www.w3.org/1999/xlink" width="80%" height="100%">
   <desc>a Kalaha game</desc>
   <defs>
      <g id="house">
         <desc>a so-called Kalaha "house"</desc>
         <rect width="45" height="85" fill="white" stroke="black" stroke-width="2"/>
      </g>
      <g id="kalah">
         <desc>a so-called Kalaha "Kalah"</desc>
         <circle r="40" stroke="black" stroke-width="2,5" fill="white"/>
      </g>
      <g id="seed">
         <desc>a so-called Kalaha "seed"</desc>
         <circle r="4" stroke="#00A4DE" stroke-width="2,5" fill="#00A4DE"/>
      </g>
      <g id="board">
         <desc>the actual Kalaha board, presented in traditional layout</desc>
         <path d="M0 40 Q 0 0 40 0                         L 535 0                         M535 0 Q 575 0 575 40                         L 575 195                         M575 195 Q 575 235 535 235                         L 40 235                         M40 235 Q 0 235 0 195                         L 0 40" stroke="black" stroke-width="2,5" fill="#E8F9FF"/>
         <use xlink:href="#kalah" x="60" y="120"/>
         <use xlink:href="#house" x="115" y="20"/>
         <use xlink:href="#house" x="175" y="20"/>
         <use xlink:href="#house" x="235" y="20"/>
         <use xlink:href="#house" x="295" y="20"/>
         <use xlink:href="#house" x="355" y="20"/>
         <use xlink:href="#house" x="415" y="20"/>
         <use xlink:href="#kalah" x="515" y="120"/>
         <use xlink:href="#house" x="115" y="130"/>
         <use xlink:href="#house" x="175" y="130"/>
         <use xlink:href="#house" x="235" y="130"/>
         <use xlink:href="#house" x="295" y="130"/>
         <use xlink:href="#house" x="355" y="130"/>
         <use xlink:href="#house" x="415" y="130"/>
         <text x="25" y="100" fill="black">abc</text>
         <text x="25" y="105" fill="black">16</text>
         <use xlink:href="#seed" x="45" y="137"/>
         <use xlink:href="#seed" x="35" y="135"/>
         <use xlink:href="#seed" x="75" y="133"/>
         <use xlink:href="#seed" x="65" y="131"/>
         <use xlink:href="#seed" x="55" y="129"/>
         <use xlink:href="#seed" x="45" y="127"/>
         <use xlink:href="#seed" x="35" y="125"/>
         <use xlink:href="#seed" x="75" y="123"/>
         <use xlink:href="#seed" x="65" y="121"/>
         <use xlink:href="#seed" x="55" y="119"/>
         <use xlink:href="#seed" x="45" y="117"/>
         <use xlink:href="#seed" x="35" y="115"/>
         <use xlink:href="#seed" x="75" y="113"/>
         <use xlink:href="#seed" x="65" y="111"/>
         <use xlink:href="#seed" x="55" y="109"/>
         <use xlink:href="#seed" x="45" y="107"/>
         <text x="25" y="150" fill="black">Anzahl gewonnene Spiele: 1</text>
         <text x="25" y="175" fill="black">Anzahl gesammelte Samen: 10</text>
         <text x="525" y="100" fill="black">xyz</text>
         <text x="525" y="105" fill="black">8</text>
         <use xlink:href="#seed" x="565" y="121"/>
         <use xlink:href="#seed" x="555" y="119"/>
         <use xlink:href="#seed" x="545" y="117"/>
         <use xlink:href="#seed" x="535" y="115"/>
         <use xlink:href="#seed" x="575" y="113"/>
         <use xlink:href="#seed" x="565" y="111"/>
         <use xlink:href="#seed" x="555" y="109"/>
         <use xlink:href="#seed" x="545" y="107"/>
         <text x="525" y="150" fill="black">Anzahl gewonnene Spiele: 2</text>
         <text x="525" y="175" fill="black">Anzahl gesammelte Samen: 20</text>
         <text x="120" y="35" fill="black">2</text>
         <use xlink:href="#seed" x="150" y="39"/>
         <use xlink:href="#seed" x="140" y="37"/>
         <text x="180" y="35" fill="black">3</text>
         <use xlink:href="#seed" x="220" y="41"/>
         <use xlink:href="#seed" x="210" y="39"/>
         <use xlink:href="#seed" x="200" y="37"/>
         <text x="240" y="35" fill="black">4</text>
         <use xlink:href="#seed" x="290" y="43"/>
         <use xlink:href="#seed" x="280" y="41"/>
         <use xlink:href="#seed" x="270" y="39"/>
         <use xlink:href="#seed" x="260" y="37"/>
         <text x="300" y="35" fill="black">5</text>
         <use xlink:href="#seed" x="310" y="45"/>
         <use xlink:href="#seed" x="350" y="43"/>
         <use xlink:href="#seed" x="340" y="41"/>
         <use xlink:href="#seed" x="330" y="39"/>
         <use xlink:href="#seed" x="320" y="37"/>
         <text x="360" y="35" fill="black">6</text>
         <use xlink:href="#seed" x="380" y="47"/>
         <use xlink:href="#seed" x="370" y="45"/>
         <use xlink:href="#seed" x="410" y="43"/>
         <use xlink:href="#seed" x="400" y="41"/>
         <use xlink:href="#seed" x="390" y="39"/>
         <use xlink:href="#seed" x="380" y="37"/>
         <text x="420" y="35" fill="black">7</text>
         <use xlink:href="#seed" x="450" y="49"/>
         <use xlink:href="#seed" x="440" y="47"/>
         <use xlink:href="#seed" x="430" y="45"/>
         <use xlink:href="#seed" x="470" y="43"/>
         <use xlink:href="#seed" x="460" y="41"/>
         <use xlink:href="#seed" x="450" y="39"/>
         <use xlink:href="#seed" x="440" y="37"/>
         <text x="120" y="135" fill="black">9</text>
         <use xlink:href="#seed" x="170" y="153"/>
         <use xlink:href="#seed" x="160" y="151"/>
         <use xlink:href="#seed" x="150" y="149"/>
         <use xlink:href="#seed" x="140" y="147"/>
         <use xlink:href="#seed" x="130" y="145"/>
         <use xlink:href="#seed" x="170" y="143"/>
         <use xlink:href="#seed" x="160" y="141"/>
         <use xlink:href="#seed" x="150" y="139"/>
         <use xlink:href="#seed" x="140" y="137"/>
         <text x="180" y="135" fill="black">10</text>
         <use xlink:href="#seed" x="190" y="155"/>
         <use xlink:href="#seed" x="230" y="153"/>
         <use xlink:href="#seed" x="220" y="151"/>
         <use xlink:href="#seed" x="210" y="149"/>
         <use xlink:href="#seed" x="200" y="147"/>
         <use xlink:href="#seed" x="190" y="145"/>
         <use xlink:href="#seed" x="230" y="143"/>
         <use xlink:href="#seed" x="220" y="141"/>
         <use xlink:href="#seed" x="210" y="139"/>
         <use xlink:href="#seed" x="200" y="137"/>
         <text x="240" y="135" fill="black">11</text>
         <use xlink:href="#seed" x="260" y="157"/>
         <use xlink:href="#seed" x="250" y="155"/>
         <use xlink:href="#seed" x="290" y="153"/>
         <use xlink:href="#seed" x="280" y="151"/>
         <use xlink:href="#seed" x="270" y="149"/>
         <use xlink:href="#seed" x="260" y="147"/>
         <use xlink:href="#seed" x="250" y="145"/>
         <use xlink:href="#seed" x="290" y="143"/>
         <use xlink:href="#seed" x="280" y="141"/>
         <use xlink:href="#seed" x="270" y="139"/>
         <use xlink:href="#seed" x="260" y="137"/>
         <text x="300" y="135" fill="black">12</text>
         <use xlink:href="#seed" x="330" y="159"/>
         <use xlink:href="#seed" x="320" y="157"/>
         <use xlink:href="#seed" x="310" y="155"/>
         <use xlink:href="#seed" x="350" y="153"/>
         <use xlink:href="#seed" x="340" y="151"/>
         <use xlink:href="#seed" x="330" y="149"/>
         <use xlink:href="#seed" x="320" y="147"/>
         <use xlink:href="#seed" x="310" y="145"/>
         <use xlink:href="#seed" x="350" y="143"/>
         <use xlink:href="#seed" x="340" y="141"/>
         <use xlink:href="#seed" x="330" y="139"/>
         <use xlink:href="#seed" x="320" y="137"/>
         <text x="360" y="135" fill="black">13</text>
         <use xlink:href="#seed" x="400" y="161"/>
         <use xlink:href="#seed" x="390" y="159"/>
         <use xlink:href="#seed" x="380" y="157"/>
         <use xlink:href="#seed" x="370" y="155"/>
         <use xlink:href="#seed" x="410" y="153"/>
         <use xlink:href="#seed" x="400" y="151"/>
         <use xlink:href="#seed" x="390" y="149"/>
         <use xlink:href="#seed" x="380" y="147"/>
         <use xlink:href="#seed" x="370" y="145"/>
         <use xlink:href="#seed" x="410" y="143"/>
         <use xlink:href="#seed" x="400" y="141"/>
         <use xlink:href="#seed" x="390" y="139"/>
         <use xlink:href="#seed" x="380" y="137"/>
         <text x="420" y="135" fill="black">14</text>
         <use xlink:href="#seed" x="470" y="163"/>
         <use xlink:href="#seed" x="460" y="161"/>
         <use xlink:href="#seed" x="450" y="159"/>
         <use xlink:href="#seed" x="440" y="157"/>
         <use xlink:href="#seed" x="430" y="155"/>
         <use xlink:href="#seed" x="470" y="153"/>
         <use xlink:href="#seed" x="460" y="151"/>
         <use xlink:href="#seed" x="450" y="149"/>
         <use xlink:href="#seed" x="440" y="147"/>
         <use xlink:href="#seed" x="430" y="145"/>
         <use xlink:href="#seed" x="470" y="143"/>
         <use xlink:href="#seed" x="460" y="141"/>
         <use xlink:href="#seed" x="450" y="139"/>
         <use xlink:href="#seed" x="440" y="137"/>
         <text x="0" y="305" fill="black">Spieler am Zug: abc</text>
      </g>
      <g id="button_new_game">
         <desc>a button for starting a new game</desc>
         <rect width="125" height="30" fill="white" stroke="black" stroke-width="2"/>
         <text x="10" y="20" fill="black">Start new Game</text>
      </g>
      <g id="button_undo_move">
         <desc>a button for undoing a move</desc>
         <rect width="97" height="30" fill="white" stroke="black" stroke-width="2"/>
         <text x="10" y="20" fill="black">Undo Move</text>
      </g>
      <g id="button_name">
         <desc>a button for name</desc>
         <rect width="97" height="30" fill="white" stroke="black" stroke-width="2"/>
         <text x="10" y="20" fill="black">Name</text>
      </g>
      <g id="logo">
         <desc>a logo</desc>
         <text x="10" y="25" fill="black">Kalaha</text>
      </g>
   </defs>
   <use xlink:href="#logo" x="0" y="0"/>
   <use xlink:href="#button_new_game" x="0" y="40"/>
   <use xlink:href="#button_undo_move" x="145" y="40"/>
   <use xlink:href="button_name" x="190" y="40"/>
   <use xlink:href="#board" x="0" y="90"/>
</svg>